<svg width="63" height="78" viewBox="0 0 63 78" fill="none" xmlns="http://www.w3.org/2000/svg">
<path d="M22.1336 55.3467C22.1336 57.5084 22.93 59.1013 24.5229 60.1253C26.2296 61.1493 28.1069 61.6613 30.1549 61.6613C32.0892 61.6613 33.9665 61.2631 35.7869 60.4667C33.9665 63.3111 31.8047 65.4729 29.3016 66.952C26.7985 68.3173 24.2385 69 21.6216 69C18.2083 69 15.1363 67.8053 12.4056 65.416C9.78871 62.9129 8.48026 59.5564 8.48026 55.3467V41.6933H5.06693V38.4507H8.48026V28.04L22.1336 24.6267V38.4507H35.7869V41.6933H22.1336V55.3467Z" fill="#405064"/>
<ellipse cx="50.1581" cy="61.8644" rx="7.43005" ry="7.18644" fill="url(#paint0_linear_125_5)"/>
<defs>
<linearGradient id="paint0_linear_125_5" x1="41.242" y1="58.9898" x2="58.952" y2="65.0933" gradientUnits="userSpaceOnUse">
<stop stop-color="#FFBDBD"/>
<stop offset="0.505" stop-color="#E1CBFA"/>
<stop offset="1" stop-color="#B3E8FF"/>
</linearGradient>
</defs>
</svg>
